<svg width="50" height="50" viewBox="0 0 50 50" fill="none" xmlns="http://www.w3.org/2000/svg">
<g clip-path="url(#clip0_51271_20)">
<path d="M25.0008 29.5961C27.4667 29.5961 29.4657 27.5972 29.4657 25.1313C29.4657 22.6654 27.4667 20.6664 25.0008 20.6664C22.5349 20.6664 20.5359 22.6654 20.5359 25.1313C20.5359 27.5972 22.5349 29.5961 25.0008 29.5961Z" fill="#00D8FF"/>
<path fill-rule="evenodd" clip-rule="evenodd" d="M25.0017 16.0534C30.9963 16.0534 36.5652 16.9136 40.7642 18.3592C45.8233 20.1009 48.9338 22.7409 48.9338 25.1314C48.9338 27.6225 45.6373 30.4272 40.2045 32.2272C36.0971 33.588 30.6921 34.2984 25.0017 34.2984C19.1673 34.2984 13.6426 33.6316 9.48895 32.2123C4.23386 30.4161 1.06866 27.5751 1.06866 25.1314C1.06866 22.7603 4.03859 20.1407 9.0266 18.4016C13.2412 16.9322 18.9476 16.0534 25.0009 16.0534H25.0017Z" stroke="#00D8FF" stroke-width="2.136"/>
<path fill-rule="evenodd" clip-rule="evenodd" d="M17.0997 20.6184C20.0945 15.4255 23.6216 11.031 26.9716 8.11571C31.0077 4.60324 34.8487 3.22765 36.9194 4.42176C39.0775 5.66625 39.8602 9.92321 38.7054 15.5286C37.8332 19.7666 35.7476 24.8035 32.9047 29.733C29.99 34.7871 26.6525 39.24 23.3482 42.1282C19.167 45.7833 15.1246 47.106 13.0077 45.8852C10.9536 44.7015 10.1681 40.8193 11.1535 35.6294C11.9861 31.2444 14.0755 25.8621 17.0987 20.6183L17.0997 20.6184Z" stroke="#00D8FF" stroke-width="2.136"/>
<path fill-rule="evenodd" clip-rule="evenodd" d="M17.1052 29.7461C14.1019 24.5591 12.0571 19.3076 11.2036 14.9495C10.1762 9.69845 10.9026 5.68366 12.9715 4.48608C15.1274 3.23794 19.2064 4.6858 23.4859 8.48574C26.7216 11.3587 30.0442 15.6802 32.8953 20.6051C35.8184 25.6544 38.0092 30.7698 38.8615 35.0749C39.9399 40.5229 39.0671 44.6855 36.9522 45.9098C34.9001 47.0978 31.1449 45.84 27.1408 42.3943C23.7577 39.4831 20.1381 34.9848 17.1052 29.7461V29.7461Z" stroke="#00D8FF" stroke-width="2.136"/>
</g>
<defs>
<clipPath id="clip0_51271_20">
<rect width="50" height="50" fill="white"/>
</clipPath>
</defs>
</svg>
