<svg width="516" height="487" viewBox="0 0 516 487" fill="none" xmlns="http://www.w3.org/2000/svg">
<path d="M320.01 378.831C351.573 378.831 377.16 353.244 377.16 321.68C377.16 290.117 351.573 264.53 320.01 264.53C288.447 264.53 262.859 290.117 262.859 321.68C262.859 353.244 288.447 378.831 320.01 378.831Z" fill="#33373E"/>
<path fill-rule="evenodd" clip-rule="evenodd" d="M320.021 205.484C396.753 205.484 468.035 216.494 521.781 234.997C586.538 257.291 626.353 291.083 626.353 321.682C626.353 353.568 584.157 389.468 514.617 412.508C462.043 429.927 392.859 439.02 320.021 439.02C245.342 439.02 174.625 430.485 121.458 412.317C54.193 389.326 13.6785 352.961 13.6785 321.682C13.6785 291.332 51.6936 257.8 115.54 235.54C169.487 216.732 242.529 205.484 320.01 205.484H320.021Z" stroke="#33373E" stroke-width="22.428"/>
<path fill-rule="evenodd" clip-rule="evenodd" d="M218.876 263.916C257.21 197.446 302.356 141.197 345.236 103.881C396.899 58.9214 446.063 41.3139 472.569 56.5986C500.192 72.528 510.21 127.017 495.429 198.766C484.265 253.013 457.569 317.484 421.181 380.582C383.872 445.275 341.152 502.272 298.857 539.241C245.337 586.026 193.595 602.957 166.499 587.33C140.206 572.179 130.152 522.487 142.765 456.057C153.422 399.928 180.167 331.035 218.863 263.915L218.876 263.916Z" stroke="#33373E" stroke-width="22.428"/>
<path fill-rule="evenodd" clip-rule="evenodd" d="M218.946 380.751C180.503 314.356 154.33 247.138 143.405 191.353C130.254 124.14 139.553 72.7511 166.034 57.422C193.63 41.4459 245.841 59.9784 300.62 108.618C342.036 145.391 384.565 200.707 421.059 263.746C458.475 328.376 486.518 393.854 497.427 448.959C511.23 518.693 500.058 571.975 472.987 587.646C446.721 602.852 398.655 586.752 347.402 542.647C304.098 505.384 257.767 447.805 218.946 380.75V380.751Z" stroke="#33373E" stroke-width="22.428"/>
</svg>
